<?xml version="1.0" encoding="UTF-8" standalone="no"?>
<!-- Created with Inkscape (http://www.inkscape.org/) -->

<svg
   version="1.1"
   id="svg69"
   width="182.08"
   height="51.84"
   viewBox="0 0 182.08 51.84"
   xmlns="http://www.w3.org/2000/svg"
   xmlns:svg="http://www.w3.org/2000/svg">
  <defs
     id="defs73" />
  <g
     id="g75">
    <path
       style="fill:#000000;stroke-width:0.32"
       d="M 25.244808,48.494189 C 19.319241,47.207485 15.720269,43.549873 14.441071,37.514417 14.19252,36.341716 13.986659,34.842231 13.983603,34.182231 l -0.0056,-1.2 h 3.158653 3.158652 l 0.215314,2.16 c 0.379837,3.81047 2.770585,6.794144 6.209264,7.749216 1.51225,0.420019 4.683284,0.420214 6.194856,3.2e-4 1.902736,-0.528416 4.176899,-2.249904 5.059069,-3.829536 l 0.804192,-1.44 v -11.36 -11.36 l -1.11298,-2.053358 C 35.314508,8.5125343 30.751601,7.4486343 27.418609,10.459792 c -1.738268,1.570421 -2.235651,2.803516 -4.502492,11.162439 -1.09777,4.048 -2.139941,7.545285 -2.315937,7.771745 -0.227336,0.292521 -1.113676,0.385179 -3.061005,0.32 l -2.741013,-0.09174 -2.417858,-8.8 c -1.329821,-4.84 -2.5178277,-9.052 -2.6400137,-9.36 -0.7747146,-1.9528567 -0.8822429,0.260496 -0.8822429,18.16 v 18.72 h -3.2 -3.2 v -22.72 -22.7199997 h 4.9093478 4.9093478 l 0.347933,1.2 c 0.191363,0.66 1.302801,4.872 2.469863,9.3599997 2.557162,9.833708 2.341264,9.150244 2.758609,8.732899 0.183767,-0.183767 1.4542,-4.563846 2.823187,-9.73351 l 2.489066,-9.3993887 11.086323,-0.08415 11.086323,-0.08415 -0.0063,16.0841457 c -0.0036,9.071267 -0.146858,17.056486 -0.328621,18.314217 -0.863293,5.973655 -4.881946,10.044592 -11.08768,11.231946 -2.92908,0.560426 -6.000308,0.549779 -8.670599,-0.03005 z m -1.026761,-11.6595 v -1.26754 l 2.8,-0.09246 2.8,-0.09246 0.08536,-8.423265 0.08536,-8.423265 -0.725359,0.221946 c -0.398947,0.12207 -1.578185,0.56454 -2.620529,0.983265 -1.042344,0.418725 -1.942344,0.761319 -2,0.761319 -0.05766,2e-6 -0.104832,-0.696195 -0.104832,-1.547102 v -1.547104 l 2.64,-0.894413 c 1.452,-0.491927 3.36,-0.911731 4.24,-0.932896 l 1.6,-0.03848 0.08456,10 0.08456,10 h 2.55544 2.55544 v 1.28 1.28 h -7.04 -7.04 z m 27.2,-9.949991 v -7.697533 l 1.494723,0.09753 1.49472,0.09753 0.82528,3.094031 c 0.453901,1.701717 0.910803,3.179244 1.015338,3.283393 0.104531,0.104149 0.591225,-1.324165 1.081542,-3.174031 l 0.891485,-3.363387 h 1.558458 1.558454 v 7.68 7.68 h -0.96 -0.96 v -6.464 c 0,-3.935399 -0.115005,-6.345081 -0.293994,-6.16 -0.161696,0.1672 -0.643088,1.6 -1.06976,3.184 -0.742832,2.757725 -0.81624,2.884077 -1.729084,2.976029 -1.033642,0.104121 -0.929636,0.326045 -2.332093,-4.976029 -0.719434,-2.719852 -0.975069,-1.398506 -0.975069,5.04 v 6.4 h -0.8 -0.8 z m 13.44,6.737533 v -0.96 h 2.08 2.08 v -3.84 -3.84 h -1.76 c -1.742221,0 -1.76,-0.0097 -1.76,-0.96 v -0.96 h 2.88 2.88 v 4.8 4.8 h 1.76 c 1.742221,0 1.76,0.0097 1.76,0.96 v 0.96 h -4.96 -4.96 z m 12.684038,0.56 c 0.132996,-0.22 1.005495,-1.436336 1.938887,-2.702968 0.933392,-1.266632 1.697075,-2.431043 1.697075,-2.587579 0,-0.156537 -0.865882,-1.496201 -1.924182,-2.977033 -1.910685,-2.673536 -1.918349,-2.693149 -1.092967,-2.796284 1.263213,-0.157844 1.611299,0.08417 2.88912,2.008704 0.648253,0.976338 1.296887,1.77516 1.441411,1.77516 0.144525,0 0.849501,-0.864 1.566618,-1.92 1.179162,-1.736394 1.411616,-1.92 2.43081,-1.92 1.300172,0 1.350425,-0.149333 -1.048871,3.116907 -0.936067,1.274298 -1.701939,2.433486 -1.701939,2.575973 0,0.142487 0.622234,1.115879 1.382742,2.163093 0.760509,1.047215 1.641072,2.300027 1.956804,2.784027 l 0.57406,0.88 h -1.136364 c -1.025914,0 -1.267274,-0.186621 -2.483168,-1.92 -0.740743,-1.056 -1.449076,-1.92 -1.574074,-1.92 -0.124998,0 -0.833331,0.864 -1.574074,1.92 -1.209004,1.723555 -1.461238,1.92 -2.465251,1.92 -0.810387,0 -1.051843,-0.110173 -0.876637,-0.4 z m 13.555962,-7.76 v -8.16 h 0.94952 0.94952 l 0.09048,3.6 c 0.06189,2.462335 0.181696,3.397748 0.37912,2.96 0.6472,-1.435037 1.199814,-1.76 2.992957,-1.76 1.545641,0 1.862029,0.119624 2.801731,1.059329 1.910085,1.910095 2.263455,5.687355 0.759675,8.120517 -1.038293,1.68001 -2.729973,2.324608 -6.123003,2.333127 l -2.8,0.007 z m 6.660778,5.484677 c 0.780835,-0.780835 0.859222,-1.080039 0.859222,-3.279657 0,-2.278722 -0.0548,-2.467569 -0.935962,-3.225515 -0.750227,-0.645317 -1.159196,-0.768855 -2.06087,-0.622534 -1.945107,0.315648 -2.386262,1.068887 -2.54273,4.341513 -0.18606,3.891612 -0.141609,3.974034 2.045344,3.792678 1.381812,-0.114592 1.966394,-0.337885 2.634996,-1.006485 z m 7.105525,2.264299 c -1.49634,-0.757107 -2.00277,-2.69408 -1.14041,-4.361717 0.70284,-1.35913 2.39135,-2.019924 4.83846,-1.893515 2.02831,0.104775 2.05697,0.09468 2.05631,-0.724148 -9.6e-4,-1.380583 -1.04425,-2.015317 -3.54417,-2.156575 -2.20127,-0.124382 -2.2165,-0.13159 -2.2165,-1.049132 0,-0.901426 0.0409,-0.923845 1.68,-0.922104 2.18692,0.0023 3.86576,0.484718 4.95947,1.425049 0.84236,0.724229 0.88746,0.91421 1.04053,4.383038 l 0.16,3.625994 0.96,0.163587 c 0.75899,0.129334 0.9812,0.347526 1.06125,1.042067 0.0995,0.863395 0.0712,0.87848 -1.65187,0.87848 h -1.75312 l -0.22566,-1.335606 -0.22564,-1.335607 -0.42806,1.018042 c -0.23853,0.567293 -0.79787,1.158649 -1.26331,1.335606 -1.15124,0.437706 -3.35187,0.389955 -4.30728,-0.09346 z m 4.96823,-1.974432 c 0.49006,-0.490057 0.78546,-1.151963 0.78546,-1.759998 v -0.974546 h -2.08 c -1.65333,0 -2.21128,0.131282 -2.72,0.64 -0.77021,0.770216 -0.80021,1.228858 -0.14186,2.168797 0.73273,1.046105 3.07794,1.004211 4.1564,-0.07425 z m 8.15177,1.974432 c -2.46508,-1.247264 -1.88975,-5.174866 0.87956,-6.004572 0.68006,-0.203752 2.05514,-0.319595 3.05574,-0.257431 1.77411,0.110221 1.81925,0.09241 1.81883,-0.717377 -6.4e-4,-1.380491 -1.04394,-2.015312 -3.54394,-2.156575 l -2.2165,-0.125243 v -0.965971 -0.965971 l 2.32,0.150482 c 2.52954,0.164075 4.15247,0.820291 4.79052,1.936994 0.22521,0.394179 0.48148,2.227761 0.56948,4.074628 l 0.16,3.357938 0.96,0.163581 c 0.75899,0.129328 0.9812,0.34752 1.06125,1.042061 0.0995,0.863066 0.0706,0.87848 -1.64576,0.87848 -1.87118,0 -2.11631,-0.212186 -2.15595,-1.866173 l -0.0205,-0.853827 -0.50255,1.008234 c -0.2764,0.554528 -0.84997,1.166528 -1.27459,1.36 -1.03071,0.469622 -3.27204,0.438412 -4.25563,-0.05926 z m 4.92783,-1.993034 c 0.61835,-0.57307 0.83861,-1.05569 0.76672,-1.679998 -0.0929,-0.806463 -0.22609,-0.883871 -1.67965,-0.975878 -2.14185,-0.135574 -3.01721,0.13325 -3.43749,1.055654 -0.28226,0.619504 -0.24593,0.943764 0.17826,1.591173 0.75399,1.150733 2.93516,1.155465 4.17216,0.0091 z m 11.50237,2.029789 c -1.31426,-0.636377 -1.53286,-1.697897 -1.65272,-8.025731 l -0.11366,-6 h -1.57506 c -1.53674,0 -1.57507,-0.02336 -1.57507,-0.96 v -0.96 h 2.72 2.72 v 6.697143 c 0,8.108915 -0.10655,7.880745 3.6,7.709391 1.07769,-0.04982 1.2,0.02509 1.2,0.734759 0,0.43463 -0.22778,0.877641 -0.50617,0.98447 -0.79937,0.306746 -4.06398,0.184743 -4.81732,-0.180032 z m 10.92349,0.06898 c -1.35116,-0.558876 -2.72,-2.670283 -2.72,-4.195542 0,-0.466967 0.22353,-0.619168 0.90935,-0.619168 0.7852,0 0.96224,0.176548 1.29679,1.293187 0.70433,2.350842 3.94682,2.975443 5.45999,1.051759 0.59406,-0.755213 0.65387,-1.281043 0.65387,-5.748101 v -4.916846 h -1.92 -1.92 v -0.96 -0.96 h 2.88 2.88 l -10e-4,6.16 c -9.6e-4,5.61401 -0.0584,6.253887 -0.647,7.219258 -0.3552,0.582588 -1.14204,1.266588 -1.74853,1.52 -1.18959,0.49704 -4.08504,0.584896 -5.12327,0.155452 z m 12.59394,-0.179958 c -1.24718,-0.677533 -1.55394,-2.012528 -1.55394,-6.762503 v -4.27225 h 0.96 0.96 l 0.005,3.92 c 0.005,4.294041 0.30766,5.37097 1.59785,5.688794 2.58687,0.637248 3.51624,-0.950606 3.51694,-6.008794 l 5.1e-4,-3.6 h 0.95145 0.95144 l 0.0886,4.72 c 0.0867,4.620486 0.10373,4.722157 0.80855,4.822256 0.55961,0.07948 0.72,0.311158 0.72,1.04 0,0.923325 -0.0271,0.937744 -1.76,0.937744 h -1.76 v -1.12 c 0,-0.616 -0.144,-1.12 -0.32,-1.12 -0.176,0 -0.32,0.190899 -0.32,0.424221 0,0.233318 -0.33328,0.737318 -0.74062,1.12 -0.87225,0.819433 -2.8024,0.918413 -4.10544,0.210531 z m 11.56606,-5.274752 v -5.76 h 0.96 c 0.78077,0 0.96092,0.134422 0.9649,0.72 0.003,0.396 0.14449,0.936 0.3151,1.2 0.2651,0.410207 0.31091,0.398575 0.3151,-0.08 0.01,-1.095519 1.1748,-1.84 2.87985,-1.84 1.30982,0 1.78178,0.166848 2.64,0.933299 l 1.04505,0.933299 0.10935,4.826701 0.10935,4.826701 h -1.14935 -1.14935 v -4.258838 c 0,-4.971718 -0.20138,-5.489506 -2.11386,-5.435295 -0.90493,0.02565 -1.42001,0.257859 -1.95715,0.882317 -0.6742,0.783805 -0.72899,1.146811 -0.72899,4.82966 v 3.982156 h -1.12 -1.12 z M 68.900175,20.465271 c -0.659418,-0.941451 -0.213619,-2.014359 0.891741,-2.146163 1.577325,-0.188079 2.365869,1.237673 1.283273,2.320266 -0.700297,0.7003 -1.613772,0.627179 -2.175014,-0.174103 z m 51.955935,0.11696 c -9.6e-4,-0.132 0.32294,-0.993542 0.72,-1.914539 0.65844,-1.527264 0.8138,-1.675019 1.76654,-1.68 l 1.0446,-0.0055 -0.96921,1.92 c -0.79341,1.571748 -1.11348,1.92 -1.76461,1.92 -0.43746,0 -0.79626,-0.108 -0.79732,-0.24 z"
       id="path159" />
  </g>
</svg>
